<svg viewBox="0 0 100 100" xmlns="http://www.w3.org/2000/svg">
  <rect width="100" height="100" fill="#111111"/>
  <svg x="15" y="10" width="70" height="80" viewBox="0 0 300 344" preserveAspectRatio="xMidYMid meet">
    <g transform="translate(0.000000,344.000000) scale(0.100000,-0.100000)" fill="#ffffff" stroke="none">
      <path d="M1440 3281 c-34 -19 -449 -142 -760 -226 -96 -26 -245 -66 -330 -89 l-155 -42 -3 -720 c-2 -511 0 -741 9 -794 44 -289 216 -554 492 -761 81 -61 313 -208 643 -408 l151 -92 293 176 c434 262 517 319 659 458 177 174 283 357 326 563 25 119 28 281 20 954 l-7 616 -92 23 c-167 42 -639 179 -919 266 -281 86 -300 91 -327 76z m-85 -513 c-4 -95 -8 -178 -10 -184 -2 -6 -41 -19 -87 -28 -293 -62 -494 -110 -500 -119 -5 -7 -7 -84 -5 -172 l2 -160 298 -3 297 -2 0 -150 0 -150 -302 0 -301 0 6 -152 c7 -186 25 -254 96 -355 79 -111 191 -199 410 -318 l91 -50 0 -183 0 -183 -57 37 c-32 20 -130 82 -218 137 -203 127 -254 164 -338 246 -126 122 -198 236 -239 378 -23 77 -23 83 -23 702 l0 625 115 33 c216 63 525 155 635 189 61 18 116 33 123 34 10 0 11 -35 7 -172z m450 116 c82 -26 272 -82 420 -124 l270 -78 0 -624 c0 -688 2 -668 -66 -816 -39 -88 -176 -272 -201 -272 -4 0 -8 189 -8 420 l0 421 -147 -3 -148 -3 -3 -532 -2 -531 -140 -91 c-77 -50 -142 -91 -145 -91 -3 0 -5 202 -5 448 0 655 12 1922 19 1922 3 0 73 -21 156 -46z"/>
      <path d="M1920 2320 l0 -220 150 0 150 0 0 180 0 179 -67 20 c-101 30 -217 61 -225 61 -5 0 -8 -99 -8 -220z"/>
    </g>
  </svg>
</svg>
