<?xml version="1.0" standalone="no"?>
<!DOCTYPE svg PUBLIC "-//W3C//DTD SVG 20010904//EN"
 "http://www.w3.org/TR/2001/REC-SVG-20010904/DTD/svg10.dtd">
<svg version="1.0" xmlns="http://www.w3.org/2000/svg"
 width="300.000000pt" height="349.000000pt" viewBox="0 0 300.000000 349.000000"
 preserveAspectRatio="xMidYMid meet">
<metadata>
Created by potrace 1.10, written by Peter Selinger 2001-2011
</metadata>
<g transform="translate(0.000000,349.000000) scale(0.100000,-0.100000)"
fill="#ffffff" stroke="none">
<path d="M1275 3279 c-71 -15 -332 -69 -580 -119 -247 -50 -458 -93 -467 -96
-17 -5 -18 -51 -18 -777 0 -443 5 -812 10 -867 28 -261 126 -467 315 -656 104
-105 215 -189 405 -307 132 -82 466 -277 475 -277 3 0 5 211 5 470 l0 470
-155 0 -155 0 0 -201 c0 -110 -3 -199 -8 -197 -4 2 -55 35 -113 75 -267 183
-391 329 -439 519 -17 65 -20 111 -20 286 l0 208 445 0 445 0 0 155 0 155
-445 0 -445 0 0 345 c0 190 3 345 8 345 4 1 134 27 290 59 l282 57 0 -143 0
-143 155 0 155 0 0 335 c0 184 -3 335 -7 334 -5 -1 -66 -14 -138 -30z"/>
<path d="M1610 1744 c0 -861 4 -1564 8 -1562 5 1 74 41 155 87 l147 84 0 728
0 729 290 0 290 0 0 -212 c0 -152 -5 -231 -15 -276 -30 -127 -113 -253 -243
-372 l-82 -74 0 -183 c0 -101 4 -183 8 -183 5 0 42 23 83 51 309 213 491 464
543 750 23 126 28 1747 6 1754 -8 2 -94 20 -190 39 -269 54 -794 162 -897 185
-51 12 -95 21 -98 21 -3 0 -5 -705 -5 -1566z m616 1121 c147 -30 269 -55 271
-55 2 0 3 -155 3 -345 l0 -345 -290 0 -290 0 0 406 c0 391 1 405 19 399 10 -3
139 -30 287 -60z"/>
</g>
</svg>
